<?xml version="1.0" encoding="utf-8"?>
<!-- Generator: Adobe Illustrator 23.1.0, SVG Export Plug-In . SVG Version: 6.00 Build 0)  -->
<svg version="1.1" id="Layer_1" xmlns="http://www.w3.org/2000/svg" xmlns:xlink="http://www.w3.org/1999/xlink" x="0px" y="0px"
	 viewBox="0 0 512 512" style="enable-background:new 0 0 512 512;" xml:space="preserve">
<style type="text/css">
	.st0{fill:#FFFFFF;}
</style>
<path class="st0" d="M418.5,0h-68.6c-4.1,0-7.5,3.4-7.5,7.5s3.4,7.5,7.5,7.5h68.6c6.9,0,12.5,5.6,12.5,12.6v85.1
	c0,4.1,3.4,7.5,7.5,7.5c4.1,0,7.5-3.4,7.5-7.5V27.6C446,12.4,433.7,0,418.5,0z"/>
<path class="st0" d="M438.5,137.8c-4.1,0-7.5,3.4-7.5,7.5v280.8c0,6.9-5.6,12.6-12.6,12.6H218.9c-4.1,0-7.5,3.4-7.5,7.5
	s3.4,7.5,7.5,7.5h176v14.9c0,1.4-1.1,2.6-2.5,2.6h-284c-1.4,0-2.5-1.2-2.5-2.6v-15.1c0.8,0.1,1.7,0.2,2.5,0.2h77.7
	c4.1,0,7.5-3.4,7.5-7.5s-3.4-7.5-7.5-7.5h-77.7c-1.4,0-2.5-1.1-2.5-2.5V420c11.7-0.9,21-10.8,21-22.7c0-12-9.3-21.8-21-22.7V352
	c11.7-0.9,21-10.8,21-22.7c0-12-9.3-21.8-21-22.7V284c11.7-0.9,21-10.8,21-22.7c0-12-9.3-21.8-21-22.7V216c11.7-0.9,21-10.8,21-22.7
	c0-12-9.3-21.8-21-22.7V148c11.7-0.9,21-10.7,21-22.7c0-12-9.3-21.8-21-22.7V80c11.7-0.9,21-10.8,21-22.7c0-12-9.3-21.8-21-22.7
	V17.5c0-1.4,1.1-2.5,2.5-2.5h208.7c4.1,0,7.5-3.4,7.5-7.5c0-4.1-3.4-7.5-7.5-7.5H108.5C98.8,0,91,7.9,91,17.5v17h-3.2
	C75.2,34.5,65,44.7,65,57.3s10.2,22.8,22.8,22.8H91v22.4h-3.2c-12.6,0-22.8,10.2-22.8,22.8c0,12.6,10.2,22.8,22.8,22.8H91v22.4h-3.2
	c-12.6,0-22.8,10.2-22.8,22.8c0,12.6,10.2,22.8,22.8,22.8H91v22.4h-3.2c-12.6,0-22.8,10.2-22.8,22.8c0,12.6,10.2,22.8,22.8,22.8H91
	v22.4h-3.2c-12.6,0-22.8,10.2-22.8,22.8s10.2,22.8,22.8,22.8H91v22.4h-3.2c-12.6,0-22.8,10.2-22.8,22.8c0,12.6,10.2,22.8,22.8,22.8
	H91v74.3c0,9.7,7.8,17.6,17.5,17.6h310.1c15.1,0,27.5-12.4,27.5-27.6v-339C446,141.2,442.7,137.8,438.5,137.8z M80,57.3
	c0-4.3,3.5-7.8,7.8-7.8h16.4c4.3,0,7.8,3.5,7.8,7.8s-3.5,7.8-7.8,7.8H87.8C83.5,65.1,80,61.6,80,57.3z M80,125.3
	c0-4.3,3.5-7.8,7.8-7.8h16.4c4.3,0,7.8,3.5,7.8,7.8s-3.5,7.8-7.8,7.8H87.8C83.5,133.1,80,129.6,80,125.3z M80,193.3
	c0-4.3,3.5-7.8,7.8-7.8h16.4c4.3,0,7.8,3.5,7.8,7.8s-3.5,7.8-7.8,7.8H87.8C83.5,201.1,80,197.6,80,193.3z M80,261.3
	c0-4.3,3.5-7.8,7.8-7.8h16.4c4.3,0,7.8,3.5,7.8,7.8c0,4.3-3.5,7.8-7.8,7.8H87.8C83.5,269.1,80,265.6,80,261.3z M80,329.3
	c0-4.3,3.5-7.8,7.8-7.8h16.4c4.3,0,7.8,3.5,7.8,7.8s-3.5,7.8-7.8,7.8H87.8C83.5,337.1,80,333.6,80,329.3z M80,397.3
	c0-4.3,3.5-7.8,7.8-7.8h16.4c4.3,0,7.8,3.5,7.8,7.8s-3.5,7.8-7.8,7.8H87.8C83.5,405.1,80,401.6,80,397.3z M418.6,497H108.4
	c-1.4,0-2.5-1.2-2.5-2.6V486c0.8,0.1,1.6,0.2,2.5,0.2h284c9.6,0,17.5-7.9,17.5-17.6v-14.9h8.6c4.5,0,8.8-1.1,12.5-3v33.7
	C431,491.3,425.5,497,418.6,497z"/>
<path class="st0" d="M247.2,166.1c3.2-3.2,5-7.5,5-12.1c0-4.6-1.8-8.9-5-12.1l-36.1-36.1c-6.7-6.7-17.6-6.7-24.2,0l-35.6,35.6
	c-8.2,8.2-10.2,20.5-5.1,30.8c16.3,32.7,43.8,69.2,77.4,102.8s70.1,61.1,102.8,77.4c3.8,1.9,7.8,2.8,11.9,2.8
	c6.9,0,13.8-2.7,18.9-7.9l35.6-35.6c6.7-6.7,6.7-17.6,0-24.2l-36.1-36.1c-6.7-6.7-17.5-6.7-24.2,0l-21.3,21.3
	c-0.8,0.8-2,0.9-2.8,0.2c-14.9-11.6-29.6-24.7-43.7-38.9c-14.1-14.1-27.2-28.9-38.9-43.7c-0.6-0.8-0.6-2,0.2-2.8L247.2,166.1z
	 M200.5,116.4l36.1,36.1c0.8,0.8,0.8,2.2,0,3l-4.5,4.5L193,120.8l4.5-4.5C198.3,115.5,199.7,115.5,200.5,116.4z M344.5,261.3
	c0.4,0,1,0.1,1.5,0.6l36.1,36.1c0.8,0.8,0.8,2.2,0,3l-4.5,4.5l-39.1-39.1l4.5-4.5C343.5,261.4,344.1,261.3,344.5,261.3z M254,244.5
	c14.6,14.6,29.7,28.1,45.1,40.1c6.8,5.3,16.5,4.7,22.6-1.4l6.2-6.2l39.1,39.1l-20.5,20.5c-3.6,3.6-9,4.5-13.5,2.3
	c-31.3-15.6-66.4-42.1-98.9-74.6c-32.5-32.5-59-67.6-74.6-98.9c-2.2-4.5-1.3-9.9,2.3-13.5l20.5-20.5l39.1,39.1l-6.2,6.2
	c-6.1,6.1-6.7,15.9-1.4,22.7C225.9,214.8,239.4,230,254,244.5z"/>
<path class="st0" d="M305.4,203.7l8-7.9c2.9-2.9,3-7.7,0.1-10.6c-2.9-2.9-7.7-3-10.6-0.1l-8,7.9c-2.9,2.9-3,7.7-0.1,10.6
	c1.5,1.5,3.4,2.2,5.3,2.2C302,205.8,303.9,205.1,305.4,203.7z"/>
<path class="st0" d="M277.9,190.2c3.3,0,6.3-2.2,7.2-5.5l3-10.8c1.1-4-1.2-8.1-5.2-9.2c-4-1.1-8.1,1.2-9.2,5.2l-3,10.8
	c-1.1,4,1.2,8.1,5.2,9.2C276.6,190.1,277.2,190.2,277.9,190.2z"/>
<path class="st0" d="M313.6,213.5c-4,1-6.4,5.1-5.4,9.1c0.9,3.4,3.9,5.6,7.3,5.6c0.6,0,1.3-0.1,1.9-0.2l10.8-2.8
	c4-1,6.4-5.1,5.4-9.1c-1-4-5.1-6.4-9.1-5.4L313.6,213.5z"/>
</svg>
